<svg width="172" height="30" viewBox="0 0 172 30" fill="none" xmlns="http://www.w3.org/2000/svg">
<path fill-rule="evenodd" clip-rule="evenodd" d="M46.4622 13.1444L40.2928 23H45.5769L48.9735 17.3472L46.4622 13.1444ZM51.446 17.5908L54.6962 23H60.0016L53.1941 12.0909L59.8525 1.18184H54.6429L50.2218 8.61792H50.0513L45.6515 1.18184H41.6441L51.4481 17.5895L51.446 17.5908ZM93.5492 5.45386C94.1955 5.92971 94.5613 6.59732 94.6465 7.4567H99.0676C99.0463 6.15698 98.6983 5.01352 98.0236 4.0263C97.3489 3.03909 96.4043 2.26849 95.1898 1.71451C93.9824 1.16053 92.5691 0.883545 90.9498 0.883545C89.3588 0.883545 87.9384 1.16053 86.6884 1.71451C85.4384 2.26849 84.4547 3.03909 83.7374 4.0263C83.0272 5.01352 82.6756 6.16764 82.6827 7.48866C82.6756 9.10087 83.2047 10.3828 84.2701 11.3345C85.3354 12.2862 86.7878 12.9858 88.6273 13.4333L91.003 14.0299C91.7985 14.2216 92.4696 14.4347 93.0165 14.6691C93.5705 14.9034 93.9895 15.1875 94.2736 15.5213C94.5648 15.8551 94.7104 16.2671 94.7104 16.7571C94.7104 17.2827 94.5506 17.7479 94.231 18.1527C93.9114 18.5576 93.4604 18.8736 92.878 19.1009C92.3027 19.3281 91.6245 19.4418 90.8432 19.4418C90.0478 19.4418 89.334 19.321 88.7019 19.0796C88.0769 18.831 87.5762 18.4652 87.1998 17.9823C86.8304 17.4922 86.6209 16.8814 86.5712 16.1499H82.1074C82.1429 17.7195 82.5229 19.037 83.2473 20.1023C83.9789 21.1605 84.9945 21.9595 86.2942 22.4993C87.601 23.0391 89.1351 23.309 90.8965 23.309C92.6721 23.309 94.1884 23.0426 95.4455 22.51C96.7097 21.9702 97.6756 21.2138 98.3432 20.2408C99.0179 19.2607 99.3588 18.103 99.3659 16.7678C99.3588 15.8587 99.1919 15.0526 98.8652 14.3495C98.5456 13.6463 98.0946 13.0355 97.5123 12.5171C96.9299 11.9986 96.2409 11.5618 95.4455 11.2067C94.65 10.8516 93.7765 10.5675 92.8248 10.3544L90.8645 9.88568C90.3887 9.77914 89.9412 9.6513 89.5222 9.50215C89.1032 9.3459 88.7338 9.1648 88.4142 8.95883C88.0946 8.74576 87.8425 8.49363 87.6578 8.20244C87.4803 7.91124 87.3986 7.57034 87.4128 7.17971C87.4128 6.71096 87.5478 6.29193 87.8176 5.92261C88.0946 5.55329 88.4924 5.26565 89.0108 5.05968C89.5293 4.84661 90.165 4.74008 90.9178 4.74008C92.0257 4.74008 92.9029 4.978 93.5492 5.45386ZM19.1458 1.18184V23H15.1614L5.66921 9.26778H5.50941V23H0.896484V1.18184H4.94478L14.3624 14.9034H14.5542V1.18184H19.1458ZM22.957 23V1.18184H37.6587V4.98511H27.57V10.184H36.9023V13.9872H27.57V19.1968H37.7014V23H22.957ZM61.9405 4.98511V1.18184H79.8596V4.98511H73.1799V23H68.6202V4.98511H61.9405ZM102.384 29.1364V6.63639H106.858V9.38497H107.06C107.259 8.94462 107.547 8.49718 107.923 8.04264C108.307 7.58099 108.804 7.19747 109.415 6.89207C110.033 6.57957 110.8 6.42332 111.716 6.42332C112.909 6.42332 114.01 6.73582 115.018 7.36082C116.027 7.97872 116.833 8.91266 117.437 10.1627C118.04 11.4056 118.342 12.9645 118.342 14.8395C118.342 16.6648 118.048 18.206 117.458 19.4631C116.876 20.7131 116.08 21.6612 115.072 22.3076C114.07 22.9468 112.948 23.2664 111.705 23.2664C110.825 23.2664 110.075 23.1208 109.457 22.8296C108.847 22.5384 108.346 22.1726 107.955 21.7323C107.565 21.2848 107.266 20.8338 107.06 20.3793H106.922V29.1364H102.384ZM106.826 14.8182C106.826 15.7912 106.961 16.6399 107.231 17.3644C107.501 18.0888 107.891 18.6534 108.403 19.0583C108.914 19.456 109.536 19.6549 110.267 19.6549C111.006 19.6549 111.631 19.4524 112.142 19.0476C112.653 18.6357 113.04 18.0675 113.303 17.3431C113.573 16.6115 113.708 15.7699 113.708 14.8182C113.708 13.8736 113.577 13.0426 113.314 12.3253C113.051 11.608 112.664 11.0469 112.153 10.6421C111.641 10.2372 111.013 10.0348 110.267 10.0348C109.528 10.0348 108.903 10.2301 108.392 10.6208C107.888 11.0114 107.501 11.5654 107.231 12.2827C106.961 13 106.826 13.8452 106.826 14.8182ZM123.243 22.7656C124.06 23.1279 124.99 23.309 126.034 23.309C126.844 23.309 127.558 23.2024 128.175 22.9894C128.793 22.7692 129.322 22.4674 129.763 22.0838C130.203 21.6932 130.555 21.2422 130.817 20.7308H130.945V23H135.249V11.9631C135.249 10.9901 135.061 10.1556 134.685 9.45954C134.308 8.75641 133.793 8.18113 133.14 7.73369C132.494 7.28624 131.751 6.95599 130.913 6.74292C130.082 6.52985 129.212 6.42332 128.303 6.42332C126.996 6.42332 125.846 6.62218 124.852 7.01991C123.864 7.41053 123.058 7.97161 122.433 8.70315C121.808 9.42758 121.389 10.287 121.176 11.2813L125.374 11.6222C125.53 11.0824 125.849 10.635 126.332 10.2799C126.815 9.91764 127.465 9.73653 128.282 9.73653C129.056 9.73653 129.653 9.92119 130.072 10.2905C130.498 10.6598 130.711 11.1818 130.711 11.8566V11.9205C130.711 12.2685 130.58 12.5313 130.317 12.7088C130.054 12.8864 129.631 13.0213 129.049 13.1137C128.467 13.1989 127.7 13.2912 126.748 13.3906C125.938 13.4688 125.164 13.6037 124.425 13.7955C123.694 13.9872 123.04 14.2713 122.465 14.6478C121.89 15.0242 121.435 15.5213 121.102 16.1392C120.768 16.7571 120.601 17.5206 120.601 18.4297C120.601 19.5093 120.835 20.4112 121.304 21.1357C121.78 21.853 122.426 22.3963 123.243 22.7656ZM129.102 19.7827C128.591 20.0455 128.001 20.1769 127.334 20.1769C126.638 20.1769 126.062 20.0171 125.608 19.6975C125.161 19.3708 124.937 18.8985 124.937 18.2806C124.937 17.8544 125.047 17.4993 125.267 17.2152C125.487 16.924 125.796 16.6932 126.194 16.5228C126.592 16.3523 127.057 16.228 127.589 16.1499C127.838 16.1144 128.115 16.0753 128.42 16.0327C128.726 15.983 129.031 15.9297 129.337 15.8729C129.642 15.809 129.915 15.7415 130.157 15.6705C130.406 15.5924 130.601 15.5071 130.743 15.4148V17.1513C130.743 17.7266 130.597 18.2415 130.306 18.696C130.015 19.1506 129.614 19.5128 129.102 19.7827ZM146.164 23.3196C144.488 23.3196 143.046 22.9645 141.838 22.2543C140.638 21.537 139.715 20.5426 139.069 19.2713C138.429 18 138.11 16.537 138.11 14.8821C138.11 13.206 138.433 11.7358 139.079 10.4716C139.733 9.20031 140.659 8.20954 141.86 7.49931C143.06 6.78198 144.488 6.42332 146.142 6.42332C147.57 6.42332 148.82 6.68255 149.892 7.20102C150.965 7.71948 151.814 8.44747 152.439 9.38497C153.064 10.3225 153.408 11.4233 153.472 12.6875H149.189C149.069 11.8708 148.749 11.2138 148.23 10.7166C147.719 10.2124 147.048 9.96025 146.217 9.96025C145.514 9.96025 144.9 10.152 144.374 10.5355C143.855 10.912 143.451 11.4624 143.159 12.1868C142.868 12.9112 142.723 13.7884 142.723 14.8182C142.723 15.8622 142.865 16.75 143.149 17.4816C143.44 18.2131 143.848 18.7706 144.374 19.1541C144.9 19.5377 145.514 19.7294 146.217 19.7294C146.735 19.7294 147.201 19.6229 147.613 19.4098C148.032 19.1968 148.376 18.8878 148.646 18.483C148.923 18.071 149.104 17.5774 149.189 17.0022H153.472C153.401 18.2522 153.06 19.353 152.449 20.3047C151.846 21.2493 151.011 21.9879 149.946 22.5206C148.88 23.0533 147.62 23.3196 146.164 23.3196ZM159.488 22.2969C160.703 22.9787 162.152 23.3196 163.835 23.3196C165.184 23.3196 166.374 23.1137 167.404 22.7017C168.441 22.2827 169.286 21.7003 169.939 20.9546C170.6 20.2017 171.037 19.321 171.25 18.3125L167.052 18.0355C166.896 18.4475 166.669 18.7955 166.371 19.0796C166.072 19.3637 165.714 19.5767 165.295 19.7188C164.876 19.8608 164.414 19.9318 163.91 19.9318C163.15 19.9318 162.493 19.772 161.939 19.4524C161.385 19.1328 160.955 18.6783 160.65 18.0888C160.351 17.4993 160.202 16.7997 160.202 15.9901V15.9794H171.346V14.733C171.346 13.3409 171.15 12.1264 170.76 11.0895C170.369 10.0455 169.822 9.179 169.119 8.49008C168.423 7.80116 167.606 7.28624 166.669 6.94534C165.738 6.59732 164.733 6.42332 163.654 6.42332C162.049 6.42332 160.65 6.77843 159.456 7.48866C158.27 8.19889 157.351 9.18965 156.697 10.461C156.044 11.7323 155.717 13.2095 155.717 14.8928C155.717 16.6186 156.044 18.1137 156.697 19.3779C157.351 20.635 158.281 21.608 159.488 22.2969ZM160.207 13.1669C160.234 12.5793 160.385 12.0431 160.66 11.5583C160.959 11.0256 161.371 10.603 161.896 10.2905C162.429 9.9709 163.04 9.8111 163.729 9.8111C164.389 9.8111 164.968 9.9567 165.465 10.2479C165.969 10.532 166.363 10.9262 166.648 11.4304C166.932 11.9347 167.074 12.5135 167.074 13.1669H160.207Z" fill="black"/>
</svg>
